<?xml version="1.0" standalone="no"?>
<!DOCTYPE svg PUBLIC "-//W3C//DTD SVG 20010904//EN"
 "http://www.w3.org/TR/2001/REC-SVG-20010904/DTD/svg10.dtd">
<svg version="1.0" xmlns="http://www.w3.org/2000/svg"
 width="260.000000pt" height="260.000000pt" viewBox="0 0 260.000000 260.000000"
 preserveAspectRatio="xMidYMid meet">
<metadata>
Created by potrace 1.14, written by Peter Selinger 2001-2017
</metadata>
<g transform="translate(0.000000,260.000000) scale(0.100000,-0.100000)"
fill="#000000" stroke="none">
<path d="M0 2385 l0 -215 43 -2 c23 -1 60 -3 82 -4 144 -7 275 -34 275 -57 0
-4 9 -3 19 3 26 13 141 1 141 -15 0 -8 9 -10 24 -8 24 5 25 7 30 127 2 66 5
150 5 186 0 73 21 152 47 181 17 19 11 19 -324 19 l-342 0 0 -215z"/>
<path d="M867 2573 c-7 -16 -24 -48 -38 -73 -32 -54 -41 -90 -29 -110 10 -16
69 -9 239 26 l84 18 103 -27 c172 -45 214 -34 214 58 0 46 14 67 39 57 19 -7
31 -20 78 -92 72 -110 73 -141 5 -160 -64 -17 -278 -38 -460 -46 -159 -6 -174
-8 -187 -28 -20 -27 -19 -31 10 -60 14 -14 24 -30 23 -36 -2 -7 27 -19 65 -29
75 -20 101 -36 77 -51 -12 -7 -11 -10 5 -16 60 -23 45 -58 -21 -47 -37 6 -38
5 -24 -12 13 -15 26 -17 105 -12 49 4 105 9 123 12 18 2 32 0 32 -5 0 -6 -7
-10 -15 -10 -18 0 -20 -45 -3 -56 9 -6 5 -10 -12 -14 -19 -5 -24 -12 -22 -29
3 -22 -13 -51 -29 -51 -5 0 -9 9 -9 20 0 17 -7 20 -40 20 -22 0 -40 -4 -40
-10 0 -5 5 -10 10 -10 15 0 12 -27 -6 -44 -20 -20 -34 -20 -34 -1 0 11 -12 15
-45 15 -43 0 -45 -1 -39 -25 7 -27 -10 -55 -32 -55 -8 0 -14 6 -14 14 0 14
-55 30 -72 20 -5 -3 -7 -12 -4 -20 3 -8 -7 -23 -24 -36 -22 -16 -26 -24 -18
-30 10 -5 10 -12 2 -25 -15 -24 -34 -28 -34 -6 0 27 -55 28 -83 2 -19 -17 -30
-19 -84 -13 -67 7 -83 -4 -36 -25 l26 -12 -32 -20 c-17 -10 -43 -19 -56 -19
-26 0 -34 -15 -12 -23 6 -2 -3 -11 -20 -21 -18 -9 -33 -24 -33 -33 0 -9 -9
-27 -21 -39 -20 -21 -19 -51 2 -39 18 12 9 -8 -27 -56 -20 -27 -40 -49 -45
-49 -6 0 -7 6 -3 13 4 6 -3 3 -15 -8 -20 -17 -54 -70 -56 -85 0 -3 -19 -43
-42 -90 -23 -47 -51 -107 -62 -133 -14 -32 -28 -51 -43 -55 -20 -5 -20 -6 -4
-12 18 -6 18 -7 0 -24 -9 -10 -19 -28 -20 -41 -3 -33 -31 -83 -54 -97 -15 -10
-17 -15 -7 -27 10 -12 9 -13 -2 -7 -10 7 -12 4 -7 -12 4 -12 1 -26 -9 -36 -9
-9 -17 -25 -18 -35 -1 -11 -3 -18 -6 -15 -3 3 -15 -14 -28 -38 -33 -65 -28
-19 7 50 17 34 30 65 30 69 0 31 153 358 216 463 15 25 22 41 17 35 -16 -16
-133 -191 -133 -199 0 -14 -93 -196 -106 -207 -8 -6 -14 -17 -14 -25 0 -7 -5
-16 -12 -20 -8 -5 -9 -1 -5 12 7 18 6 18 -9 -1 -13 -15 -15 -16 -11 -3 17 48
72 170 102 223 18 33 47 85 63 115 27 50 63 104 161 246 l34 49 -69 -65 c-70
-66 -154 -185 -226 -321 -20 -39 -46 -85 -56 -103 -15 -25 -20 -52 -20 -109 0
-70 8 -97 21 -64 3 7 6 5 6 -5 1 -10 -3 -18 -7 -18 -14 0 -14 -8 -18 -352 l-3
-328 94 0 c69 0 95 3 95 13 0 6 27 95 60 197 38 114 59 194 55 208 -4 15 1 29
13 40 10 9 31 56 46 104 28 91 39 105 50 64 8 -31 -3 -86 -17 -86 -8 0 -7 -4
0 -11 9 -9 9 -16 0 -30 -9 -15 -9 -24 1 -39 16 -27 15 -30 -9 -30 -11 0 -29
-4 -39 -10 -16 -8 -17 -14 -7 -45 9 -29 7 -38 -8 -55 -16 -18 -20 -30 -24 -81
0 -9 -12 -33 -26 -53 -14 -20 -25 -48 -25 -61 0 -14 -4 -25 -9 -25 -5 0 -18
-21 -29 -48 l-21 -47 91 -3 c50 -1 94 1 98 5 7 7 57 193 82 300 10 46 27 66
45 55 13 -8 6 -52 -8 -52 -5 0 -9 -15 -9 -34 0 -36 -15 -87 -29 -96 -4 -3 -16
-34 -25 -70 -33 -122 -35 -110 21 -110 l49 0 29 123 c17 67 30 131 31 142 1
51 38 156 64 182 l28 28 -37 -2 c-20 -1 -43 -2 -53 -2 -11 -1 -15 -7 -11 -21
4 -15 -1 -21 -23 -26 -26 -7 -26 -8 -9 -21 15 -10 16 -16 7 -25 -9 -9 -12 -8
-12 5 0 13 -6 15 -30 11 -34 -7 -37 -3 -13 21 9 10 17 32 17 51 1 19 4 34 8
34 4 0 15 26 24 58 14 44 19 52 22 33 3 -19 6 -21 14 -10 7 10 8 7 5 -13 -5
-31 -1 -38 30 -55 21 -12 23 -10 31 20 11 42 26 41 31 -3 l4 -35 8 30 c6 26 7
24 6 -15 -2 -39 1 -45 18 -45 13 0 21 9 25 30 14 65 39 84 85 65 17 -6 15 -9
-15 -14 -28 -6 -35 -12 -37 -33 -1 -23 2 -25 28 -19 22 4 27 2 22 -9 -3 -10 2
-15 16 -15 14 0 21 6 21 20 0 13 7 20 20 20 11 0 20 -4 20 -10 0 -5 -4 -10
-10 -10 -5 0 -10 -13 -10 -28 0 -19 5 -29 15 -29 11 0 15 12 15 43 0 46 9 58
34 48 11 -4 14 -16 12 -37 -2 -18 -4 -53 -5 -78 -1 -53 -25 -93 -41 -69 -5 8
-7 23 -4 33 6 19 -6 23 -23 6 -7 -7 -17 -7 -29 -1 -34 18 -104 42 -124 42 -17
0 -20 -7 -20 -44 0 -25 4 -48 10 -51 11 -7 8 -39 -14 -120 -9 -32 -16 -73 -16
-91 0 -17 -7 -50 -15 -73 l-14 -41 99 0 99 0 6 38 c13 78 17 92 26 92 8 0 15
-52 9 -75 -15 -60 -26 -55 128 -55 103 0 142 3 145 13 4 9 6 9 6 0 1 -10 151
-13 716 -13 l715 0 0 1300 0 1300 -860 0 -861 0 -12 -27z m1066 -280 c-107
-99 -275 -217 -298 -210 -12 4 -19 80 -11 113 4 15 30 38 74 64 91 54 165 79
232 80 l55 0 -52 -47z m390 -140 c-2 -10 -20 -29 -38 -43 -37 -27 -44 -40 -21
-40 8 0 16 -5 18 -10 2 -7 20 -5 51 4 26 8 47 10 47 6 0 -9 -31 -24 -44 -21
-4 1 -13 -5 -20 -13 -6 -8 -24 -17 -40 -20 -15 -3 -40 -13 -55 -23 -14 -10
-28 -18 -31 -18 -64 -12 -121 -29 -130 -41 -7 -7 -8 -14 -3 -14 5 0 10 -16 11
-35 1 -19 7 -41 14 -49 13 -13 17 -13 76 18 17 10 37 14 43 11 5 -4 28 5 49
19 22 14 44 26 49 26 5 0 22 7 37 15 16 8 37 15 46 15 9 0 20 5 23 10 3 6 14
10 23 10 13 0 12 -3 -6 -16 -12 -8 -20 -20 -17 -25 4 -5 2 -9 -4 -9 -5 0 -11
6 -14 13 -3 8 -20 4 -60 -17 -31 -16 -54 -33 -51 -38 3 -5 2 -8 -3 -7 -21 4
-34 -2 -27 -13 4 -6 3 -8 -4 -4 -6 3 -21 1 -35 -5 -19 -9 -23 -17 -22 -47 2
-21 8 -38 16 -40 12 -3 12 -2 0 6 -8 6 -9 12 -3 16 6 3 20 -10 32 -29 13 -20
30 -35 41 -35 18 0 57 -31 60 -47 4 -23 18 -45 72 -108 105 -124 144 -246 139
-429 -3 -79 -19 -124 -51 -141 -25 -12 -31 -12 -47 1 -14 11 -15 14 -3 11 8
-3 21 4 27 14 10 16 9 19 -3 19 -8 0 -15 9 -15 20 0 11 -4 20 -9 20 -5 0 -13
9 -16 20 -7 21 -30 27 -39 11 -4 -5 -1 -22 4 -37 8 -21 8 -29 -2 -36 -9 -5 -4
-7 12 -6 14 2 29 8 33 13 5 6 7 4 4 -5 -6 -25 -43 -23 -86 4 -22 14 -45 26
-50 26 -5 0 -22 7 -37 15 -16 8 -37 15 -46 15 -9 0 -20 5 -23 10 -3 6 -14 10
-23 10 -9 0 -42 13 -72 29 -30 15 -73 34 -95 41 -22 7 -44 16 -50 20 -18 13
-108 40 -135 40 -14 0 -44 13 -66 29 -53 38 -165 82 -180 70 -6 -5 -13 -6 -17
-3 -3 3 -8 -5 -12 -18 -4 -13 -12 -26 -16 -29 -11 -6 -14 -77 -5 -105 4 -14 0
-26 -14 -39 -21 -19 -26 -55 -10 -71 5 -5 5 -15 1 -23 -7 -11 -17 -9 -55 7
-26 12 -46 28 -46 36 0 9 5 16 11 16 5 0 8 4 5 9 -4 5 -2 11 2 13 5 1 12 15
16 31 5 21 3 27 -9 27 -26 0 -27 24 -5 76 51 117 56 154 21 154 -23 -1 -46
-20 -65 -58 -12 -22 -22 -32 -32 -28 -8 3 -12 2 -9 -3 3 -5 1 -12 -5 -16 -5
-3 -10 -12 -10 -18 0 -8 2 -9 8 -1 4 6 18 17 32 24 l25 13 -25 -29 c-14 -16
-27 -31 -30 -34 -8 -8 -13 -32 -13 -62 0 -16 -6 -28 -12 -28 -7 0 -11 -20 -12
-50 0 -28 4 -50 8 -50 15 0 10 -24 -11 -50 -26 -33 -25 -40 7 -40 20 0 24 3
16 11 -16 16 -5 39 17 39 24 0 31 -22 11 -37 -13 -10 -14 -11 -1 -10 8 2 20 6
27 10 22 14 93 20 93 7 0 -6 5 -8 10 -5 6 4 10 -7 10 -25 0 -26 3 -29 18 -22
25 13 42 4 42 -23 0 -23 -24 -40 -41 -29 -5 3 -15 1 -23 -3 -19 -10 -6 -33 20
-37 12 -2 18 -11 17 -22 -1 -17 0 -17 10 -3 15 20 67 34 67 18 0 -7 10 -9 27
-5 29 8 48 -10 32 -31 -6 -7 -7 -22 -3 -35 4 -13 7 -29 6 -35 -2 -7 3 -13 9
-13 7 0 9 -3 6 -7 -4 -3 -16 2 -27 12 -16 14 -23 15 -34 6 -8 -7 -49 -15 -90
-18 -66 -5 -76 -4 -76 11 0 9 5 16 10 16 6 0 10 7 10 15 0 13 11 19 31 17 4
-1 5 7 2 17 -6 24 -35 32 -50 15 -9 -9 -22 -10 -50 -3 -21 5 -54 12 -73 16
-42 7 -101 36 -119 57 -8 9 -19 16 -26 16 -10 0 -9 -15 6 -62 22 -74 22 -71 9
-63 -7 4 -7 -2 -1 -19 7 -17 6 -26 -3 -29 -15 -6 -37 62 -36 113 0 79 -5 100
-22 100 -23 0 -98 39 -98 51 0 5 -9 9 -21 9 -11 0 -29 5 -39 10 -28 15 -33 -3
-13 -46 13 -27 15 -38 6 -41 -7 -2 -9 -11 -6 -19 5 -13 7 -13 15 -2 6 8 7 0 2
-22 -9 -51 -11 -51 -46 -18 -18 17 -34 25 -36 19 -2 -6 -12 -11 -22 -11 -26 0
-50 -10 -50 -21 0 -6 9 -5 20 1 15 8 20 8 20 -2 0 -9 3 -9 12 0 21 21 35 13
35 -18 0 -25 -4 -30 -24 -30 -15 0 -23 6 -23 17 0 13 -6 11 -30 -12 -16 -15
-27 -32 -24 -37 3 -4 0 -8 -5 -8 -6 0 -11 -7 -11 -15 0 -8 7 -15 16 -15 8 0
13 -3 10 -8 -2 -4 2 -16 10 -27 8 -10 14 -14 14 -7 0 6 7 9 15 6 11 -5 12 -9
2 -19 -7 -7 -15 -11 -19 -8 -5 2 -8 -1 -8 -6 0 -14 -22 -14 -57 0 -44 18 -84
17 -127 -2 -39 -17 -40 -17 -51 4 -9 17 -8 27 3 45 13 19 12 22 -1 22 -19 0
-29 25 -21 56 4 14 2 24 -5 24 -6 0 -11 -9 -11 -20 0 -23 -8 -25 -33 -5 -11 8
-17 23 -16 37 2 13 -3 40 -10 61 -10 29 -18 37 -37 37 -13 0 -24 -5 -24 -11 0
-6 -11 -20 -25 -30 -13 -11 -22 -26 -19 -34 3 -7 -4 -20 -15 -27 -12 -7 -21
-18 -21 -25 0 -7 -7 -13 -15 -13 -8 0 -15 -2 -15 -4 0 -2 -3 -12 -7 -21 -5
-14 -2 -16 18 -10 l24 7 -24 -21 c-22 -19 -35 -25 -53 -22 -4 0 -10 -8 -13
-19 -3 -11 -13 -27 -21 -35 -14 -13 -14 -15 1 -15 15 0 15 -1 1 -16 -9 -8 -16
-21 -16 -28 0 -8 -10 -21 -23 -30 -13 -9 -15 -13 -5 -10 9 3 25 1 35 -5 17
-10 16 -10 -3 -11 -26 0 -67 -57 -94 -131 -23 -62 -23 -62 -10 -54 5 3 10 3
10 -1 0 -12 -42 -78 -68 -106 -13 -14 -24 -30 -24 -35 0 -4 -10 -26 -21 -48
-34 -64 -32 -17 2 67 75 184 114 274 121 283 4 6 11 25 15 44 4 19 16 50 26
68 11 19 19 38 19 43 0 12 9 32 173 385 106 230 122 268 92 229 -8 -10 -4 5 9
35 14 30 32 61 41 70 16 15 17 14 6 -6 -6 -12 -8 -28 -5 -36 3 -8 -11 -48 -31
-88 -52 -104 -57 -123 -38 -160 14 -28 14 -32 -6 -53 -14 -15 -18 -25 -11 -32
7 -7 4 -19 -10 -36 -24 -31 -25 -38 -5 -38 9 0 18 8 22 18 30 86 66 172 78
188 15 18 15 18 9 -8 -8 -37 4 -36 17 2 6 17 18 30 27 30 15 1 15 2 -1 14 -18
14 -17 14 2 21 12 3 21 11 21 16 0 5 7 9 15 9 9 0 19 8 22 17 6 15 7 15 13 -2
6 -17 11 -13 35 23 15 23 30 42 32 42 5 0 -3 -15 -29 -52 -22 -32 -16 -73 9
-64 9 4 25 -4 39 -19 23 -25 41 -34 29 -15 -10 16 16 41 36 35 12 -4 19 1 24
15 4 14 14 20 28 19 12 -1 31 2 41 6 13 6 21 4 24 -3 6 -18 49 -14 56 5 6 14
9 14 27 -5 11 -13 32 -22 49 -22 24 0 28 3 25 25 -1 14 -10 31 -19 38 -15 11
-12 25 33 155 26 79 51 146 55 149 11 11 40 12 52 2 6 -5 18 -7 27 -3 8 3 24
1 36 -5 13 -7 28 -8 44 -2 20 8 29 6 43 -10 12 -13 29 -19 49 -18 36 2 76 -13
94 -35 7 -9 20 -16 28 -16 8 0 21 -7 29 -15 9 -8 24 -15 34 -15 17 0 18 3 8
33 -6 17 -17 35 -24 40 -8 4 -11 24 -9 52 1 25 -1 47 -5 50 -14 9 2 89 26 131
13 22 38 53 57 67 19 14 52 44 73 67 21 22 43 40 50 40 6 0 19 9 28 19 20 22
105 65 113 57 3 -2 -5 -10 -18 -16 -12 -7 -33 -23 -46 -37 -20 -20 -23 -29
-17 -56 5 -18 8 -39 9 -47 0 -16 38 -70 49 -70 3 0 6 8 6 18 0 14 2 15 10 2 6
-10 5 -17 -5 -23 -22 -12 -18 -36 15 -92 16 -27 30 -58 30 -67 0 -10 7 -18 15
-18 8 0 15 -7 15 -15 0 -27 17 -16 23 15 8 36 0 60 -19 60 -8 0 -14 4 -14 9 0
5 -9 11 -20 14 -27 7 -27 63 0 97 25 32 25 47 1 60 -35 18 -16 110 23 110 6 0
23 6 38 14 15 8 40 17 57 21 37 8 71 48 46 53 -8 2 -15 7 -15 12 0 17 53 50
79 49 24 0 24 -1 6 -9 -26 -10 -48 -37 -50 -60 -1 -15 2 -16 22 -7 16 7 20 14
14 20 -13 13 16 36 47 37 32 0 79 26 92 50 13 25 30 26 23 3z m221 -50 c-1
-16 -3 -38 -3 -50 -1 -24 -43 -43 -97 -43 -32 0 -34 2 -34 34 0 29 3 33 23 29
14 -3 31 2 40 12 10 9 17 14 17 10 0 -4 12 3 26 14 15 12 27 21 28 21 1 0 1
-12 0 -27z m-574 -58 c-23 -24 -50 -33 -50 -17 0 7 54 39 69 41 3 1 -6 -10
-19 -24z m617 -40 c5 -4 -2 -5 -14 -2 -13 3 -23 1 -23 -4 0 -4 -7 -6 -16 -2
-12 5 -13 7 -2 14 15 9 44 7 55 -6z m-1104 -72 c4 -3 3 -11 -2 -17 -5 -6 -11
-22 -13 -36 -1 -14 -10 -25 -18 -25 -11 0 -14 9 -11 35 4 40 26 62 44 43z
m974 1 c-3 -3 -12 -4 -19 -1 -8 3 -5 6 6 6 11 1 17 -2 13 -5z m-1073 -20 c23
-9 20 -34 -5 -34 -12 0 -19 -5 -16 -12 6 -18 -11 -48 -27 -48 -8 0 -15 14 -18
35 -3 27 1 39 16 50 24 16 29 17 50 9z m196 -14 c0 -5 -7 -10 -16 -10 -8 0
-12 5 -9 10 3 6 10 10 16 10 5 0 9 -4 9 -10z m-850 -344 c0 -3 -4 -8 -10 -11
-5 -3 -10 -1 -10 4 0 6 5 11 10 11 6 0 10 -2 10 -4z m180 -40 c0 -3 -4 -8 -10
-11 -5 -3 -10 -1 -10 4 0 6 5 11 10 11 6 0 10 -2 10 -4z m-124 -62 c-5 -18 -3
-24 5 -18 7 4 10 2 7 -7 -6 -17 -58 -22 -58 -6 0 18 29 57 42 57 6 0 8 -10 4
-26z m-223 -19 c-3 -9 -8 -14 -10 -11 -3 3 -2 9 2 15 9 16 15 13 8 -4z m132
-14 c3 -10 1 -29 -4 -42 -5 -13 -10 -19 -10 -12 -1 6 -10 15 -21 18 -19 6 -19
7 -2 30 21 29 29 31 37 6z m303 -102 c12 -11 27 -17 32 -14 6 3 10 1 10 -5 0
-8 -17 -10 -51 -7 -62 7 -83 22 -48 36 33 13 33 13 57 -10z m552 -49 c0 -5 -4
-10 -10 -10 -5 0 -10 5 -10 10 0 6 5 10 10 10 6 0 10 -4 10 -10z m-675 -10
c-3 -5 -10 -10 -16 -10 -5 0 -9 5 -9 10 0 6 7 10 16 10 8 0 12 -4 9 -10z m95
0 c0 -5 -2 -10 -4 -10 -3 0 -8 5 -11 10 -3 6 -1 10 4 10 6 0 11 -4 11 -10z
m90 -10 c0 -5 -4 -10 -10 -10 -5 0 -10 5 -10 10 0 6 5 10 10 10 6 0 10 -4 10
-10z m507 -12 c-3 -8 -6 -5 -6 6 -1 11 2 17 5 13 3 -3 4 -12 1 -19z m-7 -27
c0 -5 -7 -14 -15 -21 -12 -10 -15 -10 -15 2 0 8 3 18 7 21 9 10 23 9 23 -2z
m-1225 -141 c-20 -40 -38 -82 -39 -94 -3 -27 -20 -58 -32 -56 -5 1 -10 -4 -13
-11 -2 -7 1 -9 9 -4 9 5 11 4 6 -4 -4 -6 -12 -9 -17 -6 -5 4 -10 1 -10 -4 -3
-26 -4 -30 -11 -37 -5 -4 -8 -18 -8 -30 0 -13 -8 -28 -17 -33 -12 -7 -13 -11
-5 -11 10 0 10 -4 -2 -15 -9 -9 -20 -24 -25 -33 -5 -9 -12 -14 -15 -11 -7 6
50 144 101 244 46 92 104 187 110 182 2 -3 -12 -38 -32 -77z m1948 -87 c3 -5
1 -17 -4 -28 -4 -11 -8 -15 -8 -8 -1 6 -4 18 -7 27 -6 16 11 23 19 9z m30 -28
c-3 -9 -8 -14 -10 -11 -3 3 -2 9 2 15 9 16 15 13 8 -4z m7 -69 c0 -37 -1 -38
-14 -21 -8 11 -12 24 -9 28 3 5 -4 11 -16 14 -32 8 -25 22 9 20 28 -2 30 -5
30 -41z m-1875 -5 c3 -6 -3 -15 -14 -21 -14 -7 -22 -7 -27 2 -4 6 -3 8 3 5 6
-4 13 0 17 8 6 17 12 19 21 6z m487 -58 c-5 -24 -6 -25 -12 -8 -6 16 2 33 16
35 1 0 -1 -12 -4 -27z m1018 2 c-10 -12 -9 -16 5 -21 13 -5 14 -9 3 -15 -10
-7 -9 -9 5 -9 9 0 17 -5 17 -12 0 -9 3 -9 12 0 19 19 38 14 38 -9 0 -33 -51
-139 -66 -139 -8 0 -14 7 -14 15 0 8 -6 15 -14 15 -8 0 -17 7 -20 16 -3 8 -10
13 -14 10 -5 -3 -9 15 -8 39 0 25 4 45 8 45 4 0 8 9 8 20 0 11 4 20 9 20 5 0
11 9 14 20 3 11 11 20 17 20 10 0 10 -3 0 -15z m-981 -26 c-16 -10 -23 -4 -14
10 3 6 11 8 17 5 6 -4 5 -9 -3 -15z m108 -20 c8 -8 5 -18 -15 -35 -16 -16 -28
-21 -32 -14 -4 6 -15 7 -26 3 -16 -6 -15 -2 6 24 26 33 48 41 67 22z m56 -64
c-8 -22 -22 -18 -16 5 3 11 9 17 14 15 4 -3 6 -12 2 -20z m700 11 c3 -8 -1
-13 -11 -12 -9 0 -16 -5 -14 -11 3 -20 -6 -15 -19 8 -6 12 -7 19 -2 16 5 -3
15 -2 23 4 19 11 17 11 23 -5z m-911 -32 c-2 -10 -1 -16 3 -12 4 4 17 2 29 -4
18 -10 19 -9 8 4 -10 13 -10 17 3 22 9 3 15 0 15 -9 0 -28 81 -13 102 19 4 6
7 -1 6 -16 -1 -16 -8 -28 -15 -28 -11 0 -17 -11 -15 -30 0 -3 -20 -5 -45 -5
-24 0 -49 -6 -55 -12 -8 -10 -6 -13 6 -13 10 0 16 -9 16 -24 0 -28 -3 -30 -42
-40 -24 -5 -28 -3 -28 15 0 17 -5 20 -25 17 -31 -6 -32 6 -2 27 15 11 18 18
10 23 -8 5 -9 13 -3 22 6 8 10 28 10 43 0 19 4 27 13 24 6 -2 10 -13 9 -23z
m-763 9 c-11 -3 -15 -11 -11 -25 2 -11 1 -23 -4 -27 -5 -3 -26 -40 -46 -81
-21 -41 -38 -68 -38 -59 0 9 16 46 35 82 19 36 37 76 39 89 3 13 5 24 5 26 1
1 9 1 19 1 15 -1 15 -2 1 -6z m184 -63 c-3 -11 -9 -18 -13 -15 -5 3 -11 1 -15
-5 -3 -5 1 -10 10 -10 12 0 14 -4 5 -19 -5 -11 -10 -27 -10 -36 0 -9 -7 -23
-16 -32 -8 -9 -13 -21 -10 -29 3 -7 1 -14 -4 -16 -5 -2 -11 -20 -13 -41 -3
-24 -14 -46 -30 -61 -15 -13 -29 -37 -33 -53 -4 -15 -10 -32 -14 -38 -4 -5
-17 -39 -29 -75 -13 -36 -28 -72 -35 -80 -8 -8 -16 -27 -20 -43 -3 -15 -11
-27 -16 -27 -10 0 30 117 98 287 22 54 52 136 67 183 15 47 37 107 48 134 20
48 21 48 28 23 4 -15 5 -36 2 -47z m1501 15 c9 -13 16 -31 16 -40 0 -8 5 -15
10 -15 6 0 10 -8 10 -17 1 -17 1 -17 14 0 7 9 18 17 25 17 11 0 31 -40 31 -62
0 -13 -52 -1 -63 15 -6 9 -10 9 -14 -2 -4 -11 -7 -11 -14 0 -6 10 -10 9 -15
-6 -4 -10 -16 -27 -26 -37 -15 -15 -22 -16 -40 -7 -22 12 -22 11 -7 -12 15
-23 15 -25 -12 -52 -22 -22 -29 -38 -29 -68 0 -21 4 -39 8 -39 7 0 8 -33 3
-65 -1 -5 -9 6 -17 25 -30 66 -44 125 -38 156 4 24 2 34 -12 42 -29 16 -27 61
4 88 15 13 37 27 50 30 12 3 22 10 22 15 0 5 9 9 20 9 13 0 20 7 20 19 0 17
11 28 31 30 4 1 14 -10 23 -24z m-974 -14 c0 -10 -7 -21 -15 -24 -12 -5 -12
-2 -3 18 13 30 18 31 18 6z m295 -20 c-6 -11 -45 -10 -45 0 0 4 7 15 17 24 15
15 17 15 25 1 5 -9 7 -20 3 -25z m70 19 c0 -1 15 -3 32 -5 35 -3 89 -32 78
-43 -3 -3 -18 -7 -33 -8 -15 -1 -37 -2 -48 -3 -12 0 -24 -9 -28 -18 -3 -10 -9
-24 -12 -31 -5 -10 2 -12 29 -7 33 6 35 5 33 -18 0 -14 -4 -23 -8 -21 -4 2 -9
0 -12 -5 -3 -5 1 -11 9 -15 28 -10 15 -26 -20 -26 -22 0 -38 6 -41 15 -4 8
-10 15 -15 15 -4 0 -6 -6 -3 -14 7 -19 -47 -48 -67 -36 -12 8 -12 13 0 32 10
15 10 23 2 26 -7 2 -6 9 4 19 8 8 15 19 15 24 0 14 -30 11 -36 -4 -3 -10 -21
-12 -62 -9 -44 3 -61 0 -71 -12 -11 -13 -10 -18 3 -31 20 -21 21 -35 1 -35
-11 0 -15 -11 -15 -37 0 -72 -10 -25 -13 60 -2 80 -1 86 18 89 14 2 21 13 25
38 5 38 26 49 57 31 17 -10 17 -10 1 -11 -10 0 -18 -5 -18 -11 0 -6 9 -8 20
-4 11 4 20 2 20 -4 0 -6 -9 -11 -21 -11 -11 0 -17 -4 -14 -11 5 -7 15 -5 31 5
13 9 30 16 39 16 8 0 15 5 15 11 0 8 11 9 31 5 25 -5 30 -3 25 9 -3 8 0 15 7
16 9 0 9 2 0 6 -24 9 -13 22 15 18 15 -2 27 -4 27 -5z m1195 -13 c-9 -7 -21
-31 -28 -54 -19 -64 -70 -147 -103 -165 -16 -10 -34 -29 -39 -43 -11 -28 -32
-32 -73 -12 -24 11 -26 16 -20 51 5 31 3 37 -7 31 -9 -5 -11 -4 -6 4 6 9 11 9
22 0 18 -14 45 -4 38 14 -3 8 2 21 10 30 9 9 16 20 16 26 0 6 18 16 40 22 23
7 47 23 56 38 24 37 66 70 89 70 17 0 18 -1 5 -12z m-1325 -15 c0 -18 -20 -15
-23 4 -3 10 1 15 10 12 7 -3 13 -10 13 -16z m275 -2 c0 -5 -4 -10 -10 -10 -5
0 -10 5 -10 10 0 6 5 10 10 10 6 0 10 -4 10 -10z m-880 -34 c0 -18 -6 -49 -14
-67 -7 -19 -17 -43 -21 -54 -10 -23 -12 -31 -14 -45 0 -5 -6 -10 -12 -10 -7 0
-9 11 -5 30 4 22 2 30 -9 30 -23 0 -18 24 7 35 16 7 27 26 37 63 16 59 31 68
31 18z m991 -39 c-7 -7 -12 -5 -17 7 -4 11 -1 21 7 27 17 11 26 -18 10 -34z
m493 36 c3 -4 14 -8 22 -9 43 -7 48 -14 25 -38 -23 -24 -20 -56 5 -56 8 0 14
-4 14 -8 0 -5 -7 -9 -15 -9 -14 0 -45 53 -45 78 0 7 -7 21 -17 31 -15 16 -5
27 11 11z m-1751 -48 c-3 -9 -8 -14 -10 -11 -3 3 -2 9 2 15 9 16 15 13 8 -4z
m1207 11 c0 -3 -4 -8 -10 -11 -5 -3 -10 -1 -10 4 0 6 5 11 10 11 6 0 10 -2 10
-4z m133 -36 c-3 -11 -7 -20 -8 -20 -1 0 -5 9 -8 20 -3 12 0 20 8 20 8 0 11
-8 8 -20z m397 0 c0 -5 -4 -10 -10 -10 -5 0 -10 5 -10 10 0 6 5 10 10 10 6 0
10 -4 10 -10z m-1757 -19 c-14 -9 -33 -69 -27 -85 3 -8 1 -17 -5 -21 -7 -4 -8
0 -4 11 4 12 3 15 -5 10 -7 -4 -4 14 8 44 11 28 20 53 20 56 0 3 5 2 11 -2 7
-4 7 -9 2 -13z m-164 -27 c-6 -16 -13 -24 -16 -17 -5 13 16 58 23 50 3 -2 -1
-17 -7 -33z m1401 16 c0 -5 -9 -10 -20 -10 -11 0 -20 5 -20 10 0 6 9 10 20 10
11 0 20 -4 20 -10z m100 -19 c1 -14 2 -14 11 2 14 24 30 21 25 -5 -2 -17 -12
-24 -41 -30 -47 -10 -59 0 -43 34 13 28 48 28 48 -1z m-533 -18 c-3 -10 -5 -4
-5 12 0 17 2 24 5 18 2 -7 2 -21 0 -30z m431 12 c17 -4 32 -11 32 -15 0 -12
-41 -50 -53 -50 -5 0 -7 -7 -3 -15 4 -11 -1 -15 -19 -15 -27 0 -32 9 -14 27
16 16 -13 45 -35 37 -9 -4 -16 -1 -16 6 0 6 9 14 20 17 11 3 20 10 20 15 0 5
8 7 18 4 9 -2 32 -7 50 -11z m-377 -62 c-2 -44 1 -58 13 -65 28 -15 18 -43
-20 -62 l-37 -17 7 83 c4 45 12 85 18 89 6 4 7 12 4 18 -4 6 -1 11 6 11 10 0
12 -15 9 -57z m149 42 c0 -8 -4 -15 -10 -15 -5 0 -10 7 -10 15 0 8 5 15 10 15
6 0 10 -7 10 -15z m410 -16 c11 -7 12 -12 3 -15 -7 -3 -9 -12 -6 -20 9 -24
-11 -15 -23 11 -16 33 -4 45 26 24z m-618 -14 c8 21 2 -64 -8 -97 -12 -40 -24
-14 -24 50 1 55 3 63 12 47 11 -19 11 -19 20 0z m179 -29 c4 -4 4 -17 2 -27
-8 -31 5 -69 22 -63 27 11 16 -11 -15 -29 -17 -10 -30 -13 -30 -8 0 6 -6 10
-12 9 -8 -2 -14 11 -16 35 -2 24 -8 37 -18 37 -8 0 -14 7 -14 15 0 8 7 15 15
15 8 0 15 8 15 18 0 10 3 22 7 25 6 7 31 -9 44 -27z m382 -6 c53 -1 83 -6 102
-18 20 -12 20 -12 -3 -31 -13 -11 -30 -17 -38 -14 -9 3 -14 0 -12 -8 2 -7 -7
-18 -20 -24 -19 -8 -21 -15 -16 -45 4 -19 11 -43 15 -52 14 -26 11 -34 -15
-47 -20 -11 -28 -10 -49 4 -31 20 -76 13 -102 -15 -10 -11 -22 -17 -26 -14
-12 7 -11 51 1 59 6 3 10 22 10 41 0 19 4 34 9 34 5 0 4 11 -2 25 -7 14 -15
25 -19 25 -5 0 -8 7 -8 15 0 8 8 15 18 15 10 0 23 5 29 11 6 6 17 8 24 4 9 -6
8 -11 -4 -19 -8 -7 -18 -35 -22 -64 l-6 -52 35 0 c20 0 45 -5 56 -12 29 -18
34 -4 21 54 -14 62 -21 149 -12 163 3 6 7 0 9 -12 2 -15 10 -23 25 -23z m-303
26 c0 -3 -4 -8 -10 -11 -5 -3 -10 -1 -10 4 0 6 5 11 10 11 6 0 10 -2 10 -4z
m46 -11 c-3 -9 1 -18 9 -21 8 -4 15 -12 15 -20 0 -8 6 -11 15 -8 8 4 15 2 15
-2 0 -5 -22 -19 -48 -31 -42 -19 -53 -21 -75 -10 -30 14 -30 33 0 30 16 -2 22
6 28 30 4 18 7 35 6 40 0 4 8 7 20 7 15 0 19 -5 15 -15z m-76 -5 c0 -5 -4 -10
-10 -10 -5 0 -10 5 -10 10 0 6 5 10 10 10 6 0 10 -4 10 -10z m599 -39 c22 -19
22 -20 2 -30 -28 -15 -42 -14 -57 6 -9 13 -9 22 -2 30 15 18 31 16 57 -6z
m-1422 -36 c-3 -21 -2 -33 4 -30 16 10 10 -11 -10 -37 -11 -13 -19 -38 -19
-54 0 -16 -9 -45 -21 -64 -11 -19 -21 -43 -21 -52 0 -10 -4 -18 -9 -18 -10 0
21 138 51 228 23 69 34 80 25 27z m1660 -1 c-3 -3 -12 -4 -19 -1 -8 3 -5 6 6
6 11 1 17 -2 13 -5z m111 -22 c3 -9 -3 -13 -19 -10 -12 1 -24 9 -27 16 -3 9 3
13 19 10 12 -1 24 -9 27 -16z m-378 -27 c0 -8 -4 -15 -10 -15 -5 0 -10 7 -10
15 0 8 5 15 10 15 6 0 10 -7 10 -15z m-486 -110 c-7 -5 -14 -17 -17 -25 -3 -8
-6 1 -6 21 -1 20 -4 50 -7 67 -5 24 -2 31 12 34 16 3 20 -4 24 -42 3 -27 1
-49 -6 -55z m656 95 c0 -11 -50 -34 -58 -26 -2 3 -2 12 1 21 7 17 57 21 57 5z
m-80 -41 c0 -10 -7 -19 -15 -19 -16 0 -19 9 -9 34 8 20 24 11 24 -15z m-1116
-93 c-18 -74 -34 -105 -34 -69 0 24 26 141 37 170 17 40 14 -31 -3 -101z m848
84 c5 -33 -6 -28 -17 8 -3 12 -2 22 3 22 5 0 12 -14 14 -30z m478 5 c10 -12 8
-18 -11 -35 -13 -10 -34 -19 -46 -20 -21 0 -22 2 -10 28 19 44 44 54 67 27z
m270 5 c0 -5 -4 -10 -10 -10 -5 0 -10 5 -10 10 0 6 5 10 10 10 6 0 10 -4 10
-10z"/>
<path d="M2155 2000 c-8 -13 5 -13 25 0 13 8 13 10 -2 10 -9 0 -20 -4 -23 -10z"/>
<path d="M2043 1968 c-27 -13 -31 -34 -5 -23 9 4 25 10 35 12 19 6 23 23 5 22
-7 0 -23 -5 -35 -11z"/>
<path d="M1986 1915 c4 -8 10 -12 15 -9 11 6 2 24 -11 24 -5 0 -7 -7 -4 -15z"/>
<path d="M1694 1797 c4 -18 1 -27 -11 -31 -9 -4 -13 -9 -10 -12 3 -3 16 2 30
11 19 12 26 13 29 4 2 -7 9 -9 16 -5 20 12 -2 49 -33 53 -25 4 -27 2 -21 -20z"/>
<path d="M2165 1790 c3 -5 8 -10 11 -10 2 0 4 5 4 10 0 6 -5 10 -11 10 -5 0
-7 -4 -4 -10z"/>
<path d="M2204 1624 c3 -9 6 -22 6 -30 0 -8 6 -11 15 -8 19 8 19 21 1 40 -19
19 -30 18 -22 -2z"/>
<path d="M1775 1610 c-15 -16 -15 -22 -5 -35 16 -19 34 -19 54 0 13 13 13 20
3 35 -15 25 -29 25 -52 0z"/>
<path d="M2247 1473 c5 -65 17 -93 38 -93 8 0 15 -4 15 -10 0 -17 28 1 35 23
12 38 15 116 5 122 -6 3 -10 0 -10 -9 0 -12 -7 -11 -40 5 -21 10 -41 19 -43
19 -2 0 -2 -26 0 -57z"/>
<path d="M1237 1488 c-9 -13 -25 -54 -38 -93 -12 -38 -30 -88 -41 -111 -22
-50 -22 -54 -3 -54 8 0 15 -6 16 -12 0 -7 7 4 16 25 8 20 19 37 24 37 5 0 20
23 34 50 14 28 31 50 38 50 9 0 12 16 11 52 -2 40 -7 56 -22 66 -18 12 -22 11
-35 -10z"/>
<path d="M2220 1500 c0 -5 5 -10 11 -10 5 0 7 5 4 10 -3 6 -8 10 -11 10 -2 0
-4 -4 -4 -10z"/>
<path d="M1880 1438 c0 -23 3 -29 9 -19 8 12 4 51 -5 51 -2 0 -4 -15 -4 -32z"/>
<path d="M1380 1420 c0 -5 5 -10 11 -10 5 0 7 5 4 10 -3 6 -8 10 -11 10 -2 0
-4 -4 -4 -10z"/>
<path d="M1521 1364 c10 -12 9 -13 -6 -8 -12 5 -16 4 -11 -4 3 -6 2 -13 -3
-16 -5 -4 -11 -1 -14 6 -2 7 -3 4 -1 -6 2 -11 -2 -26 -7 -33 -6 -7 -9 -18 -7
-24 2 -7 14 4 27 24 12 21 26 35 31 32 4 -3 11 2 14 11 8 22 9 21 -15 27 -17
4 -18 3 -8 -9z"/>
<path d="M2230 1349 c0 -5 5 -7 10 -4 6 3 10 -3 10 -15 0 -17 2 -19 14 -8 11
11 11 15 -3 25 -20 15 -31 16 -31 2z"/>
<path d="M2116 1328 c-10 -49 -12 -88 -5 -88 5 0 6 -7 3 -15 -8 -20 22 -31 41
-15 20 17 19 43 -5 96 -23 50 -28 53 -34 22z"/>
<path d="M2235 1185 l-27 -26 27 -25 c31 -29 42 -26 25 7 -11 19 -10 21 4 16
12 -5 16 0 16 23 0 37 -9 37 -45 5z"/>
<path d="M440 1110 c0 -5 5 -10 11 -10 5 0 7 5 4 10 -3 6 -8 10 -11 10 -2 0
-4 -4 -4 -10z"/>
<path d="M663 1074 c-13 -14 -23 -30 -23 -35 0 -4 -6 -6 -14 -3 -19 7 -52 -26
-36 -36 7 -4 8 -9 3 -11 -6 -2 -13 -17 -17 -32 -9 -37 13 -33 32 6 12 25 13
26 42 9 24 -14 28 -22 23 -42 -8 -32 -4 -30 -49 -37 -48 -8 -89 -53 -48 -53 8
0 13 4 9 9 -8 14 32 33 58 28 l22 -4 -22 -2 c-25 -1 -32 -21 -8 -21 16 0 20
-12 8 -24 -17 -17 -10 -33 13 -28 22 4 29 13 25 35 0 4 4 7 10 7 6 0 8 15 4
44 -5 28 -3 46 4 51 20 12 121 19 121 8 0 -6 10 -10 23 -9 15 1 22 -4 21 -16
-2 -18 7 -23 19 -11 4 3 0 17 -8 30 -13 19 -18 40 -24 99 0 7 -16 15 -35 18
-19 4 -39 13 -46 21 -8 9 -21 13 -35 9 -13 -3 -26 -1 -29 5 -10 16 -19 13 -43
-15z"/>
<path d="M2490 1091 c0 -7 -4 -9 -10 -6 -5 3 -10 -2 -10 -12 0 -16 1 -16 17 0
9 9 14 20 10 23 -4 4 -7 2 -7 -5z"/>
<path d="M404 1028 c-14 -28 -15 -31 -2 -20 14 11 31 52 22 52 -2 0 -11 -15
-20 -32z"/>
<path d="M525 1009 c-4 -6 -5 -13 -2 -16 7 -7 27 6 27 18 0 12 -17 12 -25 -2z"/>
<path d="M370 960 c-6 -12 -9 -24 -7 -27 3 -2 11 5 17 17 6 12 9 24 7 27 -3 2
-11 -5 -17 -17z"/>
<path d="M497 950 c-3 -11 0 -23 5 -27 13 -7 40 26 32 38 -10 16 -32 9 -37
-11z"/>
<path d="M940 950 c0 -5 5 -10 11 -10 5 0 7 5 4 10 -3 6 -8 10 -11 10 -2 0 -4
-4 -4 -10z"/>
<path d="M1230 940 c0 -5 5 -10 11 -10 5 0 7 5 4 10 -3 6 -8 10 -11 10 -2 0
-4 -4 -4 -10z"/>
<path d="M1460 925 c-7 -9 -8 -15 -2 -15 5 0 12 7 16 15 3 8 4 15 2 15 -2 0
-9 -7 -16 -15z"/>
<path d="M1496 927 c3 -10 9 -15 12 -12 3 3 0 11 -7 18 -10 9 -11 8 -5 -6z"/>
<path d="M749 833 c-1 -5 -1 -11 -1 -14 1 -4 -8 -5 -19 -2 -18 5 -19 4 -7 -23
7 -16 18 -35 25 -42 11 -11 13 -10 13 6 0 11 9 31 20 44 21 28 16 45 -8 25
-13 -9 -14 -9 -8 1 4 6 2 12 -3 12 -6 0 -12 -3 -12 -7z"/>
<path d="M630 760 c0 -5 6 -10 14 -10 8 0 18 5 21 10 3 6 -3 10 -14 10 -12 0
-21 -4 -21 -10z"/>
<path d="M295 560 c-3 -5 -1 -10 4 -10 6 0 11 5 11 10 0 6 -2 10 -4 10 -3 0
-8 -4 -11 -10z"/>
<path d="M1705 420 c3 -5 8 -10 11 -10 2 0 4 5 4 10 0 6 -5 10 -11 10 -5 0 -7
-4 -4 -10z"/>
<path d="M1010 570 c0 -5 5 -10 11 -10 5 0 7 5 4 10 -3 6 -8 10 -11 10 -2 0
-4 -4 -4 -10z"/>
<path d="M1200 568 c-2 -5 -3 -11 -4 -15 -1 -5 -5 -14 -9 -20 -5 -8 -4 -13 3
-13 13 0 24 25 17 42 -3 7 -6 10 -7 6z"/>
<path d="M1090 530 c0 -5 5 -10 10 -10 6 0 10 5 10 10 0 6 -4 10 -10 10 -5 0
-10 -4 -10 -10z"/>
<path d="M1205 500 c-3 -5 -1 -10 4 -10 6 0 11 5 11 10 0 6 -2 10 -4 10 -3 0
-8 -4 -11 -10z"/>
<path d="M1020 2020 c0 -5 7 -10 16 -10 8 0 12 5 9 10 -3 6 -10 10 -16 10 -5
0 -9 -4 -9 -10z"/>
<path d="M755 1943 c-43 -11 -38 -23 11 -23 64 0 124 10 124 21 0 9 -99 10
-135 2z"/>
<path d="M522 1923 c-7 -3 -19 -20 -27 -39 -10 -24 -20 -34 -35 -34 -19 0 -21
4 -15 30 6 27 4 30 -19 30 -22 0 -26 -5 -26 -28 0 -30 -16 -52 -37 -52 -7 0
-13 11 -13 25 0 22 -4 24 -46 23 -25 0 -51 -7 -59 -14 -7 -8 -23 -14 -34 -14
-26 0 -101 -29 -122 -47 -9 -8 -33 -18 -53 -24 -21 -6 -36 -16 -36 -25 0 -11
6 -13 23 -8 25 8 46 8 96 -1 26 -5 38 -2 56 15 19 18 27 20 43 11 14 -7 23 -8
27 -1 3 5 14 10 23 10 13 0 13 -2 -4 -15 -10 -8 -25 -15 -33 -15 -11 0 -30
-13 -88 -60 -7 -6 -24 -10 -39 -10 -14 0 -38 -9 -52 -21 l-27 -21 70 6 c39 4
88 9 110 12 31 4 36 2 23 -6 -9 -6 -15 -17 -12 -25 3 -8 -4 -31 -16 -52 -19
-32 -13 -28 36 25 44 46 63 60 73 53 9 -6 24 -6 38 0 14 5 36 9 51 9 20 0 23
3 12 9 -8 6 -18 7 -22 5 -4 -3 -8 0 -8 5 0 6 15 11 33 11 17 0 64 12 102 25
82 29 89 30 81 10 -6 -17 19 -21 29 -5 3 6 1 10 -4 10 -6 0 -11 4 -11 8 0 5
26 15 58 22 38 10 50 15 34 18 -13 2 -71 -10 -130 -26 -251 -71 -367 -92 -398
-74 -16 10 -14 11 16 12 51 0 371 77 470 112 30 11 79 24 108 28 50 8 108 20
177 37 l30 7 -37 4 c-21 2 -38 8 -38 14 0 7 14 8 39 4 29 -4 42 -2 52 11 13
15 9 15 -51 8 -36 -4 -89 -9 -118 -11 -30 -2 -63 -6 -73 -9 -19 -6 -19 -8 -4
-19 16 -11 15 -14 -9 -29 -31 -21 -101 -23 -93 -4 3 9 -10 20 -38 31 -24 10
-45 27 -48 37 -5 19 -12 22 -35 12z m-232 -87 c0 -8 -5 -18 -11 -22 -14 -8
-33 11 -25 25 10 16 36 13 36 -3z"/>
<path d="M1208 1913 c-10 -2 -18 -9 -18 -14 0 -15 53 -6 58 9 4 12 -8 14 -40
5z"/>
<path d="M1180 1856 c0 -2 7 -9 15 -16 12 -10 15 -10 15 4 0 9 -7 16 -15 16
-8 0 -15 -2 -15 -4z"/>
<path d="M438 1673 c7 -3 16 -2 19 1 4 3 -2 6 -13 5 -11 0 -14 -3 -6 -6z"/>
<path d="M764 1666 c11 -9 33 -16 50 -16 41 0 22 17 -29 25 -37 6 -39 5 -21
-9z"/>
<path d="M634 1644 c-18 -15 -18 -15 6 -10 14 3 33 6 43 6 9 0 17 5 17 10 0
16 -44 12 -66 -6z"/>
<path d="M134 1626 c-32 -24 -7 -30 28 -7 27 17 29 21 12 21 -11 0 -29 -6 -40
-14z"/>
<path d="M543 1627 c-13 -5 -23 -13 -23 -17 0 -9 49 0 55 11 9 13 -9 17 -32 6z"/>
<path d="M310 1620 c0 -5 5 -10 10 -10 6 0 10 5 10 10 0 6 -4 10 -10 10 -5 0
-10 -4 -10 -10z"/>
<path d="M40 1605 c-10 -12 -10 -15 3 -15 8 0 20 7 27 15 10 12 10 15 -3 15
-8 0 -20 -7 -27 -15z"/>
<path d="M464 1600 c-23 -9 -42 -30 -27 -30 4 0 19 9 33 20 27 21 26 23 -6 10z"/>
<path d="M295 1592 c-10 -7 -45 -56 -59 -82 -5 -8 13 7 38 34 25 26 46 50 46
52 0 6 -14 4 -25 -4z"/>
<path d="M538 1573 c-16 -2 -28 -9 -28 -14 0 -11 39 -2 55 12 5 5 7 8 5 8 -3
-1 -17 -4 -32 -6z"/>
<path d="M120 1470 c-17 -22 -25 -38 -17 -35 17 7 61 64 54 71 -2 3 -19 -13
-37 -36z"/>
<path d="M32 1467 c-19 -19 -32 -43 -32 -57 1 -23 2 -23 11 -7 6 10 9 21 6 24
-3 2 10 20 30 39 19 19 31 34 26 34 -5 0 -23 -15 -41 -33z"/>
<path d="M374 1449 c-19 -22 -19 -22 3 -10 24 12 39 31 25 31 -5 0 -17 -10
-28 -21z"/>
<path d="M158 1431 c-34 -30 -34 -50 0 -32 23 12 57 61 42 61 -5 0 -24 -13
-42 -29z"/>
<path d="M456 1425 c-11 -8 -17 -17 -14 -20 2 -3 13 4 23 15 21 23 18 25 -9 5z"/>
<path d="M77 1403 c-4 -3 -7 -11 -7 -17 0 -6 5 -5 12 2 6 6 9 14 7 17 -3 3 -9
2 -12 -2z"/>
<path d="M263 1372 c-18 -21 -36 -42 -40 -47 -5 -5 11 6 35 24 23 18 42 39 42
47 0 19 -1 19 -37 -24z"/>
<path d="M343 1382 c-18 -15 -44 -45 -59 -67 l-26 -40 52 50 c43 42 78 86 68
85 -2 0 -17 -13 -35 -28z"/>
<path d="M173 1340 c-24 -33 -39 -60 -33 -60 9 0 90 101 90 113 0 19 -19 1
-57 -53z"/>
<path d="M77 1338 c-53 -57 -77 -98 -76 -128 l0 -25 22 30 c12 16 35 43 50 59
16 16 40 47 53 68 21 32 22 38 8 38 -10 0 -35 -19 -57 -42z"/>
<path d="M176 1270 c-42 -32 -86 -87 -86 -107 0 -7 -8 -21 -17 -31 -44 -44
-73 -102 -73 -144 l0 -43 51 85 c28 47 54 92 57 100 3 8 28 44 56 80 27 36 54
71 59 78 16 21 -6 13 -47 -18z"/>
<path d="M294 1210 c-15 -22 -25 -42 -23 -45 3 -2 17 16 32 40 33 56 27 59 -9
5z"/>
<path d="M7 1173 c-4 -3 -7 -11 -7 -17 0 -6 5 -5 12 2 6 6 9 14 7 17 -3 3 -9
2 -12 -2z"/>
<path d="M112 910 c-10 -17 -10 -20 3 -20 8 0 15 9 15 20 0 11 -1 20 -3 20 -1
0 -8 -9 -15 -20z"/>
<path d="M650 440 c-13 -9 -13 -11 0 -20 13 -8 12 -11 -5 -24 -20 -15 -20 -15
3 -9 16 4 22 13 22 34 0 33 0 32 -20 19z"/>
<path d="M642 303 c-11 -32 -30 -85 -42 -118 -12 -33 -25 -73 -30 -90 -4 -16
-13 -43 -19 -58 -15 -39 -16 -38 36 -35 l46 3 12 55 c7 30 20 101 29 158 14
88 14 106 3 123 -13 18 -16 16 -35 -38z"/>
</g>
</svg>
